<svg xmlns="http://www.w3.org/2000/svg">
	<g>
		<svg class="svg-inline--fa fa-leaf fa-w-18" style="color: Green;transform-origin: 0.6875em 0.625em;" data-fa-transform="shrink-4 down-2 right-2" aria-hidden="true" focusable="false" data-prefix="fas" data-icon="leaf" role="img" xmlns="http://www.w3.org/2000/svg" viewBox="0 0 576 512" data-fa-i2svg="">
			<g transform="translate(288 256)">
				<g transform="translate(64, 64)  scale(0.75, 0.75)  rotate(0 0 0)">
					<path fill="currentColor" d="M546.2 9.7c-5.6-12.5-21.6-13-28.3-1.2C486.9 62.4 431.4 96 368 96h-80C182 96 96 182 96 288c0 7 .8 13.7 1.5 20.5C161.3 262.8 253.4 224 384 224c8.8 0 16 7.2 16 16s-7.2 16-16 16C132.6 256 26 410.1 2.4 468c-6.6 16.3 1.2 34.9 17.5 41.6 16.4 6.8 35-1.1 41.8-17.3 1.5-3.6 20.9-47.9 71.9-90.6 32.4 43.9 94 85.8 174.9 77.2C465.5 467.5 576 326.7 576 154.3c0-50.2-10.8-102.2-29.8-144.6z" transform="translate(-288 -256)"></path>
				</g>
			</g>
		</svg>
	</g>
	<g>
		<svg class="svg-inline--fa fa-drumstick-bite fa-w-16" style="color: Red;transform-origin: 0.375em 0.375em;" data-fa-transform="shrink-4 up-2 left-2" aria-hidden="true" focusable="false" data-prefix="fas" data-icon="drumstick-bite" role="img" xmlns="http://www.w3.org/2000/svg" viewBox="0 0 512 512" data-fa-i2svg="">
			<g transform="translate(256 256)">
				<g transform="translate(-64, -64)  scale(0.75, 0.75)  rotate(0 0 0)">
					<path fill="currentColor" d="M462.8 49.57a169.44 169.44 0 0 0-239.5 0C187.82 85 160.13 128 160.13 192v85.83l-40.62 40.59c-9.7 9.69-24 11.07-36.78 6a60.33 60.33 0 0 0-65 98.72C33 438.39 54.24 442.7 73.85 438.21c-4.5 19.6-.18 40.83 15.1 56.1a60.35 60.35 0 0 0 98.8-65c-5.09-12.73-3.72-27 6-36.75L234.36 352h85.89a187.87 187.87 0 0 0 61.89-10c-39.64-43.89-39.83-110.23 1.05-151.07 34.38-34.36 86.76-39.46 128.74-16.8 1.3-44.96-14.81-90.28-49.13-124.56z" transform="translate(-256 -256)"></path>
				</g>
			</g>
		</svg>
	</g>
</svg>

